Coordinates
version=1
nRows=10
nColumns=40
inDegrees=yes

Units are S.I. units (second, meters, Newtons, ...)
If the header above contains a line with 'inDegrees', this indicates whether rotational values are in degrees (yes) or radians (no).

endheader
time	pelvis_tilt	pelvis_list	pelvis_rotation	pelvis_tx	pelvis_ty	pelvis_tz	hip_flexion_r	hip_adduction_r	hip_rotation_r	knee_angle_r	knee_angle_r_beta	ankle_angle_r	subtalar_angle_r	mtp_angle_r	hip_flexion_l	hip_adduction_l	hip_rotation_l	knee_angle_l	knee_angle_l_beta	ankle_angle_l	subtalar_angle_l	mtp_angle_l	lumbar_extension	lumbar_bending	lumbar_rotation	arm_flex_r	arm_add_r	arm_rot_r	elbow_flex_r	pro_sup_r	wrist_flex_r	wrist_dev_r	arm_flex_l	arm_add_l	arm_rot_l	elbow_flex_l	pro_sup_l	wrist_flex_l	wrist_dev_l
     10.69999999999999928946	     -8.58562983317389694093	      1.64402254373644529650	    179.26723166441951207162	      0.23554188835274722513	      0.75727145999922473862	     -0.95133473715686467376	     33.87168459315772395257	    -40.83106511229718904588	    -20.67293916064573267022	     58.56210795050486694890	      1.02210160064465838126	      4.01229936101118411784	      0.00000000000000000000	      0.00000000000000000000	     29.17017028357601660105	    -49.55274044241438957670	    -23.17504546118402330990	     52.11720409852019741948	      0.90961680845306069898	     -3.14426578053152283587	      0.00000000000000000000	      0.00000000000000000000	    -61.23004276767844089591	     -0.44855019690071845639	     -0.42293144280717287486	     42.01386463542909410762	      2.27778897209892861042	     26.67727714000111305381	      3.52044294218375863892	     10.73329459180729017476	      0.00000000000000000000	      0.00000000000000000000	     47.95142441458342119631	     -9.51392813913803081505	     78.25853329962644977513	      6.31005583860379459793	     83.04331367430965826770	      0.00000000000000000000	      0.00000000000000000000
     10.70500000000000007105	     -8.25880962931368856061	      1.99032375873985190040	    179.29345632270550936482	      0.23595297217324354144	      0.75904371940515935613	     -0.95088992304011021872	     33.55732341932741036317	    -40.37084641680282715015	    -21.31609540230202171074	     57.88845242907073895822	      1.01034409377139366981	      3.77147038180606797297	      0.00000000000000000000	      0.00000000000000000000	     29.48540529539797461211	    -49.53526226091057083067	    -22.67948426965422470403	     51.56493766790795518773	      0.89997794089064020451	     -3.54200830676687328236	      0.00000000000000000000	      0.00000000000000000000	    -60.76080284330665648440	     -0.11799960750918005170	     -0.14148100435649083040	     41.95453035911342709596	      2.17450191860877239947	     26.65253665166743246573	      3.55969956502780782159	     10.78203838339256748213	      0.00000000000000000000	      0.00000000000000000000	     47.78440270798599698310	     -9.39620515470834938299	     78.16161213274537544748	      6.24451803344747791158	     83.02028764576662922536	      0.00000000000000000000	      0.00000000000000000000
     10.71000000000000085265	     -7.96971572776965331286	      2.05548884933406350584	    179.23739774407533786871	      0.23603142380655264820	      0.76082819313697047647	     -0.95050510663940379619	     33.44578447749169214376	    -40.17890528729755317272	    -21.68892603790348516668	     57.28773239723286536673	      0.99985955133313753063	      3.42157863787718996562	      0.00000000000000000000	      0.00000000000000000000	     29.54041468487341504101	    -49.53804745713517121430	    -23.02496788985432374375	     51.37836047806456463150	      0.89672155461875457938	     -3.58212885129192448730	      0.00000000000000000000	      0.00000000000000000000	    -60.29714463210331842902	     -0.04126556953632531249	     -0.11181322577898668291	     41.86067984362507843343	      2.12642444350001191822	     26.64002957202045962504	      3.53057391515423502071	     10.78685085808968757703	      0.00000000000000000000	      0.00000000000000000000	     47.59497221919297516024	     -9.36991022791955252558	     78.16082381470252471445	      6.24528383474154846766	     83.02311611180520856124	      0.00000000000000000000	      0.00000000000000000000
     10.71499999999999985789	     -7.59603391060653265754	      2.40587242852389326941	    179.27611377637902023707	      0.23634969330722385705	      0.76251626073709177778	     -0.95005315645408505709	     33.20193082223610048231	    -39.71919708660210801554	    -22.32603607775460119456	     56.64310071953929792699	      0.98860860609473000249	      3.10643540728376343907	      0.00000000000000000000	      0.00000000000000000000	     29.85376397193487107984	    -49.52513190470271098320	    -22.60552374605570236099	     50.70417750654316080272	      0.88495484200482688042	     -3.94849181024981321642	      0.00000000000000000000	      0.00000000000000000000	    -59.76505277793493320360	      0.30285748205224399809	      0.13939995550194378415	     41.76717902952432126540	      2.04430202114124037749	     26.63308632138482678897	      3.55315237843460796086	     10.82677479507651163715	      0.00000000000000000000	      0.00000000000000000000	     47.44580498066800089418	     -9.23680719560140772728	     78.04315025615353818011	      6.17918097359809870284	     82.99808714540792209391	      0.00000000000000000000	      0.00000000000000000000
     10.72000000000000063949	     -7.30179458397233016598	      2.47546438636730758986	    179.21842957267190854509	      0.23635980472767650906	      0.76435491082816642283	     -0.94969108475178209972	     33.06840451954866466622	    -39.49913391917935001629	    -22.69234093820056230584	     56.00514552318442440537	      0.97747418743813041520	      2.77325560093606382495	      0.00000000000000000000	      0.00000000000000000000	     29.89595210067209052340	    -49.51595747459346341657	    -22.95962269180769865784	     50.54256494413424860568	      0.88213417067820654172	     -4.00004962574722799928	      0.00000000000000000000	      0.00000000000000000000	    -59.28021447308560709644	      0.39051017984264996263	      0.19881610678759503719	     41.67653705119816009983	      1.98690713974937804842	     26.62696583152311191611	      3.52143460959250598208	     10.82996867321685385832	      0.00000000000000000000	      0.00000000000000000000	     47.21867884206026388938	     -9.19657142289388396250	     78.03436026881686871093	      6.18518468869574888913	     83.00265569502207085861	      0.00000000000000000000	      0.00000000000000000000
     10.72499999999999964473	     -6.92974540130225946655	      2.80535170287335899886	    179.25147468684090767965	      0.23660623465390434594	      0.76616508369804614542	     -0.94914916217822087319	     32.81095779261698908158	    -39.01550164960141131587	    -23.29752563571585000091	     55.28136158140679867756	      0.96484177458104791736	      2.44976698284422234053	      0.00000000000000000000	      0.00000000000000000000	     30.14930091066214146167	    -49.48961246515513323629	    -22.61920255212463715111	     49.87784717845803328373	      0.87053265707065641266	     -4.37939493414562619478	      0.00000000000000000000	      0.00000000000000000000	    -58.75259006717273990716	      0.74433025571556987732	      0.43676763841575322322	     41.58809631660167838163	      1.88376548242907904118	     26.65926961678498230413	      3.53872555223452467388	     10.86556431802279121257	      0.00000000000000000000	      0.00000000000000000000	     47.00367034022536216753	     -9.04871677663426154936	     77.89859107834260498748	      6.10923811753174472727	     82.97563140653183211271	      0.00000000000000000000	      0.00000000000000000000
     10.73000000000000042633	     -6.63183321830053618129	      2.87526331466932871805	    179.20678071831085276244	      0.23666419126683757579	      0.76796613026935645063	     -0.94886122971842667972	     32.70469336702714713283	    -38.79211826620443304137	    -23.61685585223218453166	     54.67630691065906489712	      0.95428157842192984361	      2.10342454799192335457	      0.00000000000000000000	      0.00000000000000000000	     30.20709097956723354628	    -49.48349170542767438974	    -22.94287127529940306658	     49.66287121455860642527	      0.86678061868796296707	     -4.43909109241013943858	      0.00000000000000000000	      0.00000000000000000000	    -58.26219967446727565630	      0.83604230963206715987	      0.50139095484066609210	     41.48346600690755536789	      1.82076721476724090465	     26.66521362962825492104	      3.50696544168865020907	     10.86851277885268629575	      0.00000000000000000000	      0.00000000000000000000	     46.81730594693415525853	     -9.00756105994398303949	     77.88274978650750313136	      6.11626840618389611137	     82.97853718277414714066	      0.00000000000000000000	      0.00000000000000000000
     10.73499999999999943157	     -6.29656982165822043385	      3.02054230489371944302	    179.18550575162092286519	      0.23670984553115442806	      0.76979579056639002577	     -0.94843175013436853416	     32.55491778891763487991	    -38.46537655252807752504	    -24.00645578966290827339	     53.99438479428024351137	      0.94237979224895140895	      1.76008726353016231592	      0.00000000000000000000	      0.00000000000000000000	     30.27678535247829572086	    -49.45959529534308529719	    -23.14302489110977489872	     49.23961366509580983575	      0.85939338086591443577	     -4.57156636685055861591	      0.00000000000000000000	      0.00000000000000000000	    -57.73905042295005074493	      1.00468447419615536376	      0.60289067427853004766	     41.36985501503440332272	      1.74252773882472977718	     26.68054115270058446185	      3.49040238136556491000	     10.87491155844165824362	      0.00000000000000000000	      0.00000000000000000000	     46.61138576195070015729	     -8.93797784569663456011	     77.85756287606271541790	      6.11301581567413077067	     82.97754164433113999166	      0.00000000000000000000	      0.00000000000000000000
     10.74000000000000021316	     -6.00438726157095370439	      3.15041109383659456711	    179.13718802470336299848	      0.23675942949337291932	      0.77166817767465945010	     -0.94816843684859297703	     32.40684107017214188318	    -38.14622344545070831145	    -24.35696347398798877748	     53.34595954603160805618	      0.93106263671395117498	      1.46742950277080241861	      0.00000000000000000000	      0.00000000000000000000	     30.29618427070318276151	    -49.43751556343916320202	    -23.34645096545506604002	     48.88080691352067930211	      0.85313102167254295516	     -4.70370385000036250744	      0.00000000000000000000	      0.00000000000000000000	    -57.24602946387916801996	      1.16339960720680446471	      0.70450496700308551379	     41.23211581749759346849	      1.66752599162821435463	     26.69096919551734714560	      3.46710716117229278410	     10.87761455362369567013	      0.00000000000000000000	      0.00000000000000000000	     46.41968814491189476712	     -8.89561225506482600167	     77.84430628468686563792	      6.10060158943650954200	     82.97825824810523442920	      0.00000000000000000000	      0.00000000000000000000
     10.74499999999999921840	     -5.58494515133791047390	      3.55869597605192433676	    179.18475433132778107392	      0.23714332268560570083	      0.77348227305265893072	     -0.94765590585533676649	     32.16782574830664742649	    -37.50196190085473091358	    -24.87520343195001260028	     52.54734707874527543936	      0.91712421971232915840	      1.20063739244811951146	      0.00000000000000000000	      0.00000000000000000000	     30.63194260088249976093	    -49.38851649453182801608	    -22.78369331802168318291	     48.03692571896062446513	      0.83840251633180717938	     -5.25624977746405619428	      0.00000000000000000000	      0.00000000000000000000	    -56.67163170957106643755	      1.57997615526945045517	      1.03429520344133063503	     41.24162102224925519067	      1.43155078619359854564	     26.76048580990606851060	      3.55787603114808526072	     10.92665126084173010668	      0.00000000000000000000	      0.00000000000000000000	     46.23644668706312899076	     -8.72093637626683104713	     77.73460960762120919298	      5.98217096898049227605	     82.95674125557584943635	      0.00000000000000000000	      0.00000000000000000000
